<mxfile host="app.diagrams.net" agent="Mozilla/5.0 (Macintosh; Intel Mac OS X 10_15_7) AppleWebKit/537.36 (KHTML, like Gecko) Chrome/131.0.0.0 Safari/537.36" version="25.0.3">
  <diagram name="Page-1" id="OxWZv5cNlbbj7t2oBWVj">
    <mxGraphModel dx="4910" dy="616" grid="1" gridSize="10" guides="1" tooltips="1" connect="1" arrows="1" fold="1" page="1" pageScale="1" pageWidth="850" pageHeight="1100" math="0" shadow="0">
      <root>
        <mxCell id="0" />
        <mxCell id="1" parent="0" />
        <mxCell id="YbXK0seZOmQ-wqNpPtgu-1" value="&lt;span style=&quot;font-weight: 400;&quot;&gt;Observability webserver&amp;nbsp;&lt;/span&gt;&lt;span style=&quot;font-weight: 400; background-color: initial;&quot;&gt;Core&lt;/span&gt;" style="swimlane;whiteSpace=wrap;html=1;" parent="1" vertex="1">
          <mxGeometry x="-3380" y="270" width="1070" height="540" as="geometry" />
        </mxCell>
        <mxCell id="z-qeSlOFR7JuZe_kGNKS-1" value="MetricQueue" style="swimlane;fontStyle=0;childLayout=stackLayout;horizontal=1;startSize=30;horizontalStack=0;resizeParent=1;resizeParentMax=0;resizeLast=0;collapsible=1;marginBottom=0;whiteSpace=wrap;html=1;" parent="YbXK0seZOmQ-wqNpPtgu-1" vertex="1">
          <mxGeometry x="218" y="65" width="176" height="60" as="geometry" />
        </mxCell>
        <mxCell id="z-qeSlOFR7JuZe_kGNKS-2" value="Map&amp;lt;String, Metric&amp;gt; metrics" style="text;strokeColor=none;fillColor=none;align=left;verticalAlign=middle;spacingLeft=4;spacingRight=4;overflow=hidden;points=[[0,0.5],[1,0.5]];portConstraint=eastwest;rotatable=0;whiteSpace=wrap;html=1;" parent="z-qeSlOFR7JuZe_kGNKS-1" vertex="1">
          <mxGeometry y="30" width="176" height="30" as="geometry" />
        </mxCell>
        <mxCell id="l9mm82pEdwwzoz56pJF8-46" value="&lt;p style=&quot;margin: 4px 0px 0px; text-align: center;&quot;&gt;&lt;span style=&quot;background-color: initial; text-align: left; font-size: 12px;&quot;&gt;SimpleRegisterServer&lt;/span&gt;&lt;/p&gt;&lt;hr size=&quot;1&quot; style=&quot;border-style:solid;&quot;&gt;&lt;p style=&quot;margin:0px;margin-left:8px;&quot;&gt;HttpServer server&lt;br&gt;&lt;br&gt;&lt;/p&gt;&lt;p style=&quot;margin:0px;margin-left:8px;&quot;&gt;server.createContext(&lt;span class=&quot;hljs-string&quot;&gt;&quot;/&quot;&lt;/span&gt;, &lt;span class=&quot;hljs-keyword&quot;&gt;new&lt;/span&gt; &lt;span class=&quot;hljs-title class_&quot;&gt;RequestMethodHandler&lt;/span&gt;());&lt;/p&gt;&lt;p style=&quot;margin:0px;margin-left:8px;&quot;&gt;&lt;br&gt;&lt;/p&gt;&lt;p style=&quot;margin:0px;margin-left:8px;&quot;&gt;run();&lt;/p&gt;" style="verticalAlign=top;align=left;overflow=fill;html=1;whiteSpace=wrap;" vertex="1" parent="YbXK0seZOmQ-wqNpPtgu-1">
          <mxGeometry x="798" y="42" width="170" height="120" as="geometry" />
        </mxCell>
        <mxCell id="l9mm82pEdwwzoz56pJF8-48" value="" style="edgeStyle=orthogonalEdgeStyle;rounded=0;orthogonalLoop=1;jettySize=auto;html=1;exitX=0.25;exitY=0.625;exitDx=0;exitDy=0;exitPerimeter=0;" edge="1" parent="YbXK0seZOmQ-wqNpPtgu-1" source="l9mm82pEdwwzoz56pJF8-47" target="l9mm82pEdwwzoz56pJF8-46">
          <mxGeometry relative="1" as="geometry" />
        </mxCell>
        <mxCell id="l9mm82pEdwwzoz56pJF8-47" value="www" style="ellipse;shape=cloud;whiteSpace=wrap;html=1;" vertex="1" parent="YbXK0seZOmQ-wqNpPtgu-1">
          <mxGeometry x="1091" y="52" width="120" height="80" as="geometry" />
        </mxCell>
        <mxCell id="l9mm82pEdwwzoz56pJF8-51" style="edgeStyle=orthogonalEdgeStyle;rounded=0;orthogonalLoop=1;jettySize=auto;html=1;entryX=0.641;entryY=0.988;entryDx=0;entryDy=0;entryPerimeter=0;exitX=0.439;exitY=0.006;exitDx=0;exitDy=0;exitPerimeter=0;" edge="1" parent="YbXK0seZOmQ-wqNpPtgu-1" source="l9mm82pEdwwzoz56pJF8-49" target="l9mm82pEdwwzoz56pJF8-46">
          <mxGeometry relative="1" as="geometry" />
        </mxCell>
        <mxCell id="l9mm82pEdwwzoz56pJF8-52" style="edgeStyle=orthogonalEdgeStyle;rounded=0;orthogonalLoop=1;jettySize=auto;html=1;" edge="1" parent="YbXK0seZOmQ-wqNpPtgu-1" source="l9mm82pEdwwzoz56pJF8-49" target="l9mm82pEdwwzoz56pJF8-50">
          <mxGeometry relative="1" as="geometry" />
        </mxCell>
        <mxCell id="l9mm82pEdwwzoz56pJF8-49" value="&lt;p style=&quot;margin: 4px 0px 0px; text-align: center;&quot;&gt;ObservabilityWebserverCoreApplication&lt;/p&gt;&lt;hr size=&quot;1&quot; style=&quot;border-style:solid;&quot;&gt;&lt;p style=&quot;margin:0px;margin-left:8px;&quot;&gt;main(){&lt;/p&gt;&lt;p style=&quot;margin:0px;margin-left:8px;&quot;&gt;&lt;span style=&quot;white-space: pre;&quot;&gt;&#x9;&lt;/span&gt;SimpleRegisterServer.run();&lt;/p&gt;&lt;p style=&quot;margin:0px;margin-left:8px;&quot;&gt;&lt;span style=&quot;white-space: pre;&quot;&gt;&#x9;&lt;/span&gt;&lt;span style=&quot;background-color: initial;&quot;&gt;ScheduledExecutorService.run();&lt;/span&gt;&lt;br&gt;&lt;/p&gt;&lt;p style=&quot;margin:0px;margin-left:8px;&quot;&gt;}&lt;/p&gt;" style="verticalAlign=top;align=left;overflow=fill;html=1;whiteSpace=wrap;" vertex="1" parent="YbXK0seZOmQ-wqNpPtgu-1">
          <mxGeometry x="798" y="199" width="250" height="90" as="geometry" />
        </mxCell>
        <mxCell id="l9mm82pEdwwzoz56pJF8-84" style="edgeStyle=orthogonalEdgeStyle;rounded=0;orthogonalLoop=1;jettySize=auto;html=1;entryX=0.428;entryY=0.991;entryDx=0;entryDy=0;entryPerimeter=0;" edge="1" parent="YbXK0seZOmQ-wqNpPtgu-1" source="l9mm82pEdwwzoz56pJF8-50" target="l9mm82pEdwwzoz56pJF8-81">
          <mxGeometry relative="1" as="geometry">
            <mxPoint x="268" y="340" as="targetPoint" />
          </mxGeometry>
        </mxCell>
        <mxCell id="l9mm82pEdwwzoz56pJF8-85" style="edgeStyle=orthogonalEdgeStyle;rounded=0;orthogonalLoop=1;jettySize=auto;html=1;entryX=0.5;entryY=1;entryDx=0;entryDy=0;" edge="1" parent="YbXK0seZOmQ-wqNpPtgu-1" source="l9mm82pEdwwzoz56pJF8-50" target="l9mm82pEdwwzoz56pJF8-83">
          <mxGeometry relative="1" as="geometry" />
        </mxCell>
        <mxCell id="l9mm82pEdwwzoz56pJF8-50" value="&lt;p style=&quot;margin: 4px 0px 0px; text-align: center;&quot;&gt;&lt;span style=&quot;background-color: initial; text-align: left;&quot;&gt;ScheduledExecutorService&lt;/span&gt;&lt;/p&gt;&lt;hr size=&quot;1&quot; style=&quot;border-style:solid;&quot;&gt;&lt;p style=&quot;margin:0px;margin-left:8px;&quot;&gt;run()&lt;/p&gt;&lt;p style=&quot;margin:0px;margin-left:8px;&quot;&gt;&lt;br&gt;&lt;/p&gt;&lt;p style=&quot;margin:0px;margin-left:8px;&quot;&gt;&lt;span style=&quot;background-color: initial;&quot; class=&quot;hljs-type&quot;&gt;ScheduledExecutorService&lt;/span&gt;&lt;span style=&quot;background-color: initial;&quot;&gt; &lt;/span&gt;&lt;span style=&quot;background-color: initial;&quot; class=&quot;hljs-variable&quot;&gt;scheduler&lt;/span&gt;&lt;span style=&quot;background-color: initial;&quot;&gt; &lt;/span&gt;&lt;span style=&quot;background-color: initial;&quot; class=&quot;hljs-operator&quot;&gt;=&amp;nbsp;&lt;/span&gt;Executors.newScheduledThreadPool;&lt;br&gt;        &lt;span class=&quot;hljs-type&quot;&gt;&lt;br&gt;&lt;/span&gt;&lt;/p&gt;&lt;p style=&quot;margin:0px;margin-left:8px;&quot;&gt;&lt;span style=&quot;background-color: initial;&quot; class=&quot;hljs-type&quot;&gt;Runnable&lt;/span&gt;&lt;span style=&quot;background-color: initial;&quot;&gt; &lt;/span&gt;&lt;span style=&quot;background-color: initial;&quot; class=&quot;hljs-variable&quot;&gt;task1&amp;nbsp;&lt;/span&gt;&lt;span style=&quot;background-color: initial;&quot;&gt;() -&amp;gt; {&lt;/span&gt;&lt;span style=&quot;background-color: initial;&quot;&gt;&amp;nbsp;};&lt;/span&gt;&lt;/p&gt;&lt;p style=&quot;margin:0px;margin-left:8px;&quot;&gt;&lt;br&gt;&lt;/p&gt;&lt;p style=&quot;margin:0px;margin-left:8px;&quot;&gt;scheduler.schedule(task1, &lt;span class=&quot;hljs-number&quot;&gt;3&lt;/span&gt;, TimeUnit.SECONDS);&lt;/p&gt;&lt;p style=&quot;margin:0px;margin-left:8px;&quot;&gt;&lt;br&gt;&lt;/p&gt;" style="verticalAlign=top;align=left;overflow=fill;html=1;whiteSpace=wrap;" vertex="1" parent="YbXK0seZOmQ-wqNpPtgu-1">
          <mxGeometry x="808" y="340" width="230" height="170" as="geometry" />
        </mxCell>
        <mxCell id="l9mm82pEdwwzoz56pJF8-55" style="edgeStyle=orthogonalEdgeStyle;rounded=0;orthogonalLoop=1;jettySize=auto;html=1;entryX=0;entryY=0.5;entryDx=0;entryDy=0;exitX=1.002;exitY=0.445;exitDx=0;exitDy=0;exitPerimeter=0;" edge="1" parent="YbXK0seZOmQ-wqNpPtgu-1" source="l9mm82pEdwwzoz56pJF8-53" target="l9mm82pEdwwzoz56pJF8-46">
          <mxGeometry relative="1" as="geometry" />
        </mxCell>
        <mxCell id="l9mm82pEdwwzoz56pJF8-78" style="edgeStyle=orthogonalEdgeStyle;rounded=0;orthogonalLoop=1;jettySize=auto;html=1;" edge="1" parent="YbXK0seZOmQ-wqNpPtgu-1" source="l9mm82pEdwwzoz56pJF8-53" target="z-qeSlOFR7JuZe_kGNKS-2">
          <mxGeometry relative="1" as="geometry" />
        </mxCell>
        <mxCell id="l9mm82pEdwwzoz56pJF8-53" value="&lt;p style=&quot;margin: 4px 0px 0px; text-align: center;&quot;&gt;&lt;span style=&quot;text-align: left;&quot;&gt;RequestMethodHandler&lt;/span&gt;&lt;/p&gt;&lt;hr size=&quot;1&quot; style=&quot;border-style:solid;&quot;&gt;&lt;p style=&quot;margin:0px;margin-left:8px;&quot;&gt;&lt;span class=&quot;hljs-title function_&quot;&gt;handle&lt;/span&gt;&lt;span class=&quot;hljs-params&quot;&gt;(HttpExchange exchange)&lt;/span&gt; &lt;span class=&quot;hljs-keyword&quot;&gt;throws&lt;/span&gt; IOException&amp;nbsp;&lt;/p&gt;&lt;p style=&quot;margin:0px;margin-left:8px;&quot;&gt;&lt;br&gt;&lt;/p&gt;&lt;p style=&quot;margin:0px;margin-left:8px;&quot;&gt;&lt;span class=&quot;hljs-title function_&quot;&gt;callExternalApi&lt;/span&gt;&lt;span class=&quot;hljs-params&quot;&gt;(String apiUrl)&lt;/span&gt;&lt;/p&gt;&lt;p style=&quot;margin:0px;margin-left:8px;&quot;&gt;&lt;span class=&quot;hljs-params&quot;&gt;&lt;br&gt;&lt;/span&gt;&lt;/p&gt;" style="verticalAlign=top;align=left;overflow=fill;html=1;whiteSpace=wrap;" vertex="1" parent="YbXK0seZOmQ-wqNpPtgu-1">
          <mxGeometry x="458" y="41" width="220" height="138" as="geometry" />
        </mxCell>
        <mxCell id="l9mm82pEdwwzoz56pJF8-54" style="edgeStyle=orthogonalEdgeStyle;rounded=0;orthogonalLoop=1;jettySize=auto;html=1;entryX=0.995;entryY=0.445;entryDx=0;entryDy=0;entryPerimeter=0;" edge="1" parent="YbXK0seZOmQ-wqNpPtgu-1" source="l9mm82pEdwwzoz56pJF8-46" target="l9mm82pEdwwzoz56pJF8-53">
          <mxGeometry relative="1" as="geometry" />
        </mxCell>
        <mxCell id="l9mm82pEdwwzoz56pJF8-79" value="&lt;p style=&quot;margin: 4px 0px 0px; text-align: center;&quot;&gt;Metric&lt;/p&gt;&lt;hr size=&quot;1&quot; style=&quot;border-style:solid;&quot;&gt;&lt;p style=&quot;margin:0px;margin-left:8px;&quot;&gt;boolean success&lt;/p&gt;&lt;div&gt;&amp;nbsp; Time responseTime&amp;nbsp;&lt;/div&gt;&lt;div&gt;&amp;nbsp; String method&lt;/div&gt;&lt;div&gt;&amp;nbsp; String path&lt;/div&gt;" style="verticalAlign=top;align=left;overflow=fill;html=1;whiteSpace=wrap;" vertex="1" parent="YbXK0seZOmQ-wqNpPtgu-1">
          <mxGeometry x="18" y="65" width="160" height="90" as="geometry" />
        </mxCell>
        <mxCell id="l9mm82pEdwwzoz56pJF8-80" style="edgeStyle=orthogonalEdgeStyle;rounded=0;orthogonalLoop=1;jettySize=auto;html=1;entryX=1;entryY=0.5;entryDx=0;entryDy=0;" edge="1" parent="YbXK0seZOmQ-wqNpPtgu-1" source="z-qeSlOFR7JuZe_kGNKS-2" target="l9mm82pEdwwzoz56pJF8-79">
          <mxGeometry relative="1" as="geometry" />
        </mxCell>
        <mxCell id="l9mm82pEdwwzoz56pJF8-81" value="&lt;p style=&quot;margin: 4px 0px 0px; text-align: center;&quot;&gt;MetricCalculation&lt;/p&gt;&lt;hr size=&quot;1&quot; style=&quot;border-style:solid;&quot;&gt;&lt;p style=&quot;margin:0px;margin-left:8px;&quot;&gt;countSuccess&lt;/p&gt;&lt;div&gt;&amp;nbsp; countFail&lt;/div&gt;&lt;div&gt;&amp;nbsp; bestResponseTime&lt;/div&gt;&lt;div&gt;&amp;nbsp; worstResponseTime&lt;/div&gt;&lt;div&gt;&amp;nbsp; totalResponseTime&lt;/div&gt;&lt;div&gt;&amp;nbsp; totalRequests&lt;/div&gt;&lt;div&gt;&amp;nbsp; averageResponseTime&lt;/div&gt;" style="verticalAlign=top;align=left;overflow=fill;html=1;whiteSpace=wrap;" vertex="1" parent="YbXK0seZOmQ-wqNpPtgu-1">
          <mxGeometry x="200" y="190" width="162" height="140" as="geometry" />
        </mxCell>
        <mxCell id="l9mm82pEdwwzoz56pJF8-82" style="edgeStyle=orthogonalEdgeStyle;rounded=0;orthogonalLoop=1;jettySize=auto;html=1;entryX=0.356;entryY=0.966;entryDx=0;entryDy=0;entryPerimeter=0;" edge="1" parent="YbXK0seZOmQ-wqNpPtgu-1" source="l9mm82pEdwwzoz56pJF8-81" target="z-qeSlOFR7JuZe_kGNKS-2">
          <mxGeometry relative="1" as="geometry" />
        </mxCell>
        <mxCell id="l9mm82pEdwwzoz56pJF8-83" value="&lt;p style=&quot;margin: 4px 0px 0px; text-align: center;&quot;&gt;MetricPrint&lt;/p&gt;&lt;hr size=&quot;1&quot; style=&quot;border-style:solid;&quot;&gt;&lt;p style=&quot;margin:0px;margin-left:8px;&quot;&gt;printConsole()&lt;/p&gt;" style="verticalAlign=top;align=left;overflow=fill;html=1;whiteSpace=wrap;" vertex="1" parent="YbXK0seZOmQ-wqNpPtgu-1">
          <mxGeometry x="468" y="235" width="160" height="90" as="geometry" />
        </mxCell>
        <mxCell id="l9mm82pEdwwzoz56pJF8-7" value="Plug in anySystem" style="swimlane;whiteSpace=wrap;html=1;" vertex="1" parent="1">
          <mxGeometry x="-3380" y="10" width="990" height="240" as="geometry" />
        </mxCell>
        <mxCell id="l9mm82pEdwwzoz56pJF8-43" style="edgeStyle=orthogonalEdgeStyle;rounded=0;orthogonalLoop=1;jettySize=auto;html=1;" edge="1" parent="l9mm82pEdwwzoz56pJF8-7" source="l9mm82pEdwwzoz56pJF8-33" target="l9mm82pEdwwzoz56pJF8-34">
          <mxGeometry relative="1" as="geometry" />
        </mxCell>
        <mxCell id="l9mm82pEdwwzoz56pJF8-33" value="Any Rest System" style="shape=parallelogram;perimeter=parallelogramPerimeter;whiteSpace=wrap;html=1;fixedSize=1;" vertex="1" parent="l9mm82pEdwwzoz56pJF8-7">
          <mxGeometry x="40" y="80" width="140" height="60" as="geometry" />
        </mxCell>
        <mxCell id="l9mm82pEdwwzoz56pJF8-40" value="" style="edgeStyle=orthogonalEdgeStyle;rounded=0;orthogonalLoop=1;jettySize=auto;html=1;" edge="1" parent="l9mm82pEdwwzoz56pJF8-7" source="l9mm82pEdwwzoz56pJF8-34" target="l9mm82pEdwwzoz56pJF8-33">
          <mxGeometry relative="1" as="geometry" />
        </mxCell>
        <mxCell id="l9mm82pEdwwzoz56pJF8-34" value="Observability webserver&lt;div&gt;Core&lt;/div&gt;" style="shape=hexagon;perimeter=hexagonPerimeter2;whiteSpace=wrap;html=1;fixedSize=1;" vertex="1" parent="l9mm82pEdwwzoz56pJF8-7">
          <mxGeometry x="230" y="70" width="120" height="80" as="geometry" />
        </mxCell>
        <mxCell id="l9mm82pEdwwzoz56pJF8-39" style="edgeStyle=orthogonalEdgeStyle;rounded=0;orthogonalLoop=1;jettySize=auto;html=1;exitX=0.07;exitY=0.4;exitDx=0;exitDy=0;exitPerimeter=0;" edge="1" parent="l9mm82pEdwwzoz56pJF8-7" source="l9mm82pEdwwzoz56pJF8-35" target="l9mm82pEdwwzoz56pJF8-34">
          <mxGeometry relative="1" as="geometry" />
        </mxCell>
        <mxCell id="l9mm82pEdwwzoz56pJF8-45" style="edgeStyle=orthogonalEdgeStyle;rounded=0;orthogonalLoop=1;jettySize=auto;html=1;" edge="1" parent="l9mm82pEdwwzoz56pJF8-7" source="l9mm82pEdwwzoz56pJF8-35" target="l9mm82pEdwwzoz56pJF8-36">
          <mxGeometry relative="1" as="geometry" />
        </mxCell>
        <mxCell id="l9mm82pEdwwzoz56pJF8-35" value="www" style="ellipse;shape=cloud;whiteSpace=wrap;html=1;" vertex="1" parent="l9mm82pEdwwzoz56pJF8-7">
          <mxGeometry x="440" y="78" width="120" height="80" as="geometry" />
        </mxCell>
        <mxCell id="l9mm82pEdwwzoz56pJF8-38" style="edgeStyle=orthogonalEdgeStyle;rounded=0;orthogonalLoop=1;jettySize=auto;html=1;entryX=0.875;entryY=0.5;entryDx=0;entryDy=0;entryPerimeter=0;" edge="1" parent="l9mm82pEdwwzoz56pJF8-7" source="l9mm82pEdwwzoz56pJF8-36" target="l9mm82pEdwwzoz56pJF8-35">
          <mxGeometry relative="1" as="geometry" />
        </mxCell>
        <mxCell id="l9mm82pEdwwzoz56pJF8-36" value="Actor" style="shape=umlActor;verticalLabelPosition=bottom;verticalAlign=top;html=1;outlineConnect=0;" vertex="1" parent="l9mm82pEdwwzoz56pJF8-7">
          <mxGeometry x="621" y="88" width="30" height="60" as="geometry" />
        </mxCell>
        <mxCell id="l9mm82pEdwwzoz56pJF8-41" value="&lt;h1 style=&quot;margin-top: 0px;&quot;&gt;How to use Observability&lt;/h1&gt;&lt;p&gt;Inside the &quot;Observability&amp;nbsp;&lt;span style=&quot;background-color: initial;&quot;&gt;Webserver Core&quot; all the request will be start monitored.&lt;/span&gt;&lt;/p&gt;&lt;p&gt;If you desire a different metric you can personalize registering the request.&lt;/p&gt;&lt;p&gt;You just need expose the&amp;nbsp;&lt;span style=&quot;background-color: initial;&quot;&gt;&quot;Observability Webserver Core&quot; instead your current server.&amp;nbsp;&lt;/span&gt;&lt;/p&gt;" style="text;html=1;whiteSpace=wrap;overflow=hidden;rounded=0;" vertex="1" parent="l9mm82pEdwwzoz56pJF8-7">
          <mxGeometry x="680" y="38" width="300" height="192" as="geometry" />
        </mxCell>
        <mxCell id="l9mm82pEdwwzoz56pJF8-44" style="edgeStyle=orthogonalEdgeStyle;rounded=0;orthogonalLoop=1;jettySize=auto;html=1;entryX=0.07;entryY=0.4;entryDx=0;entryDy=0;entryPerimeter=0;" edge="1" parent="l9mm82pEdwwzoz56pJF8-7" source="l9mm82pEdwwzoz56pJF8-34" target="l9mm82pEdwwzoz56pJF8-35">
          <mxGeometry relative="1" as="geometry" />
        </mxCell>
      </root>
    </mxGraphModel>
  </diagram>
</mxfile>
